<svg xmlns="http://www.w3.org/2000/svg" viewBox="0 0 512.001 512.001" width="512" height="512"><path d="M465.407 441.732l-57.002-107.344a7.498 7.498 0 0 0-10.143-3.106 7.5 7.5 0 0 0-3.106 10.143l57.002 107.344c5.454 10.269 5.133 22.35-.858 32.315-5.992 9.965-16.511 15.915-28.14 15.915H88.841c-11.628 0-22.147-5.95-28.139-15.915-5.992-9.965-6.313-22.046-.859-32.316l125.673-236.663a74.78 74.78 0 0 0 8.702-34.917l.041-122.125h123.483l.04 122.125a74.775 74.775 0 0 0 8.702 34.918l46.837 88.204a7.498 7.498 0 0 0 10.143 3.106 7.5 7.5 0 0 0 3.106-10.143l-46.837-88.204a59.717 59.717 0 0 1-6.95-27.886l-.04-122.121h6.188c7.21 0 13.076-5.867 13.076-13.077V13.077c0-7.21-5.866-13.077-13.076-13.077H173.068c-7.21 0-13.077 5.867-13.077 13.077v28.908c0 7.21 5.866 13.077 13.077 13.077h6.188l-.041 122.12a59.705 59.705 0 0 1-6.95 27.886L46.594 441.732c-7.945 14.962-7.477 32.563 1.252 47.082 8.729 14.519 24.054 23.187 40.995 23.187h334.317c16.941 0 32.267-8.668 40.996-23.187 8.73-14.52 9.198-32.12 1.253-47.082zM174.994 40.059V15.002h162.013v25.057H174.994z" fill="#FFF"/><path d="M425.966 449.225l-65.989-126.103c-4.527-8.651-14.835-12.81-23.968-9.668a36.159 36.159 0 0 0-6.095 2.759c-4.578-14.935-18.493-25.827-34.909-25.827-14.73 0-27.441 8.774-33.205 21.367a44.612 44.612 0 0 0-5.806-.377c-14.281 0-21.883 6.052-27.992 10.915-5.369 4.274-9.609 7.65-18.648 7.65s-13.28-3.375-18.648-7.65c-3.917-3.118-8.358-6.653-14.712-8.836-9.136-3.139-19.442 1.017-23.969 9.668L86.036 449.226c-3.419 6.535-3.181 14.203.638 20.513 3.82 6.31 10.503 10.076 17.878 10.076h55.435a7.5 7.5 0 0 0 7.501-7.501 7.5 7.5 0 0 0-7.501-7.501h-55.435c-3 0-4.528-1.988-5.045-2.843-.517-.855-1.571-3.13-.18-5.788l65.99-126.103c1.12-2.141 3.614-3.19 5.801-2.437 3.909 1.343 6.845 3.68 10.244 6.387 6.109 4.863 13.711 10.914 27.992 10.914 14.282 0 21.884-6.052 27.993-10.915 5.369-4.274 9.609-7.65 18.648-7.65.888 0 1.716.043 2.516.106-.002.136-.01.27-.01.406 0 20.129 16.376 36.505 36.505 36.505 17.74 0 32.559-12.724 35.828-29.523 3.316-2.639 6.216-4.914 10.049-6.231 2.183-.75 4.682.296 5.802 2.437l65.989 126.103c1.391 2.658.337 4.933-.181 5.788-.517.854-2.044 2.843-5.045 2.843H207.494a7.5 7.5 0 0 0-7.501 7.501 7.5 7.5 0 0 0 7.501 7.501h199.955c7.376 0 14.06-3.768 17.879-10.076 3.818-6.31 4.057-13.978.638-20.513zm-130.96-100.833c-11.857 0-21.503-9.646-21.503-21.503s9.646-21.503 21.503-21.503 21.503 9.646 21.503 21.503-9.647 21.503-21.503 21.503z" fill="#FFF"/><path d="M200.493 375.676c-20.129 0-36.505 16.376-36.505 36.505s16.376 36.505 36.505 36.505 36.505-16.376 36.505-36.505-16.376-36.505-36.505-36.505zm0 58.008c-11.857 0-21.503-9.646-21.503-21.503s9.646-21.503 21.503-21.503 21.503 9.646 21.503 21.503-9.646 21.503-21.503 21.503zm45.163-259.272c-17.733 0-32.161 14.428-32.161 32.162 0 17.733 14.428 32.161 32.161 32.161s32.161-14.427 32.161-32.161-14.428-32.162-32.161-32.162zm0 49.322c-9.461 0-17.159-7.697-17.159-17.159s7.698-17.16 17.159-17.16 17.159 7.698 17.159 17.16c0 9.461-7.698 17.159-17.159 17.159z" fill="#FFF"/></svg>